PathFileType	4	(X/Y/Z)	\\Move.snu.ac.kr\motion\Animal\091204_091205_Bird\091205_bird\Project 2\Capture day 2\Session 1\pigeon_025.trc
DataRate	CameraRate	NumFrames	NumMarkers	Units	OrigDataRate	OrigDataStartFrame	OrigNumFrames
240.0	240.0	15	14	mm	240.0	290	2738
Frame#	Time	14MarkersBird:Head			14MarkersBird:C_back			14MarkersBird:Spine			14MarkersBird:L-shoulder			14MarkersBird:L-elbow			14MarkersBird:L-wrist			14MarkersBird:L-hand			14MarkersBird:R-shoulder			14MarkersBird:R-elbow			14MarkersBird:R-Wrist			14MarkersBird:R-hand			14MarkersBird:C_Tail			14MarkersBird:L-Tale			14MarkersBird:R-Tale			
		X1	Y1	Z1	X2	Y2	Z2	X3	Y3	Z3	X4	Y4	Z4	X5	Y5	Z5	X6	Y6	Z6	X7	Y7	Z7	X8	Y8	Z8	X9	Y9	Z9	X10	Y10	Z10	X11	Y11	Z11	X12	Y12	Z12	X13	Y13	Z13	X14	Y14	Z14	

2222	9.254	692.61938	1260.34680	-176.66356	662.00824	1269.19580	-119.43957	637.95764	1258.64233	-71.00320	658.26184	1263.33276	-155.52167	625.87860	1260.80139	-154.00674	627.19250	1241.07043	-194.25558	615.58240	1229.02466	-217.12413	698.22198	1256.87024	-137.26056	713.59528	1250.63220	-115.31653	737.56744	1226.53894	-140.58087	768.77625	1202.66382	-147.13434	579.18054	1189.40308	14.18048	536.06012	1235.62622	-79.09529	703.14532	1214.37695	9.13772	
2223	9.258	697.94055	1254.78625	-189.83928	667.55109	1264.28638	-132.35689	643.41199	1253.02014	-83.79703	663.82739	1258.47510	-168.73003	631.33221	1253.85291	-166.66010	637.69556	1234.34167	-206.62769	630.65826	1218.42322	-228.63615	703.58612	1252.18481	-150.58401	718.65747	1244.10815	-128.62352	738.92328	1220.79224	-157.58749	766.21057	1193.68201	-168.15874	586.79553	1179.43518	-0.43404	542.05579	1227.18286	-92.98985	708.57605	1207.66687	-4.04499	
2224	9.262	703.39117	1249.21155	-203.17096	673.21869	1259.09668	-145.55661	648.91870	1247.37634	-96.84208	669.53680	1253.49854	-182.03685	636.61053	1248.02319	-178.68492	646.93567	1230.65234	-218.75044	644.21729	1212.07849	-239.32352	709.02985	1247.38940	-164.02206	723.77295	1238.85400	-141.18661	741.48926	1217.88757	-173.14067	765.02057	1188.42542	-186.74989	593.90369	1170.02698	-15.43188	548.19061	1218.21179	-107.04226	714.05499	1199.80933	-17.74755	
2225	9.267	709.02625	1243.62280	-216.67078	679.02521	1253.43066	-159.11766	654.54968	1241.74524	-110.23003	675.36560	1248.21021	-195.46364	641.74011	1243.36230	-190.15648	654.69574	1229.58838	-230.68925	655.05823	1209.49341	-249.81955	714.57050	1242.27258	-177.56717	728.93628	1234.80981	-153.07726	745.48822	1217.37012	-187.16371	766.09076	1186.21094	-202.53851	600.39966	1161.32678	-30.79137	554.42188	1208.95764	-120.84459	719.34247	1191.02539	-31.84884	
2226	9.271	714.84814	1237.96716	-230.34445	684.99841	1247.25720	-173.06873	660.41119	1235.98340	-124.04625	681.28223	1242.49609	-209.00743	647.00739	1239.77551	-201.07169	661.12244	1230.37158	-242.29198	662.48987	1209.51819	-260.52570	720.16772	1236.71545	-191.22163	733.90405	1231.87085	-164.40884	750.62000	1218.49866	-199.75044	769.57373	1186.02307	-215.40535	606.48010	1153.39160	-46.34148	560.71240	1199.89246	-134.15041	724.23944	1181.80286	-46.16492	
2227	9.275	720.82843	1232.17554	-244.18288	691.13977	1240.68286	-187.34076	666.52490	1229.98999	-138.21202	687.27081	1236.33386	-222.61244	652.86694	1236.98901	-211.41145	666.61023	1232.19800	-253.39587	666.54047	1210.85803	-271.34256	725.76440	1230.75500	-204.95604	738.17462	1229.84131	-175.45927	756.36676	1220.57178	-211.17859	774.99292	1186.89294	-225.42589	612.44080	1146.14355	-61.76169	566.99847	1191.52930	-146.97328	728.73499	1172.75574	-60.49626	
2228	9.279	726.92407	1226.20313	-258.14288	697.42426	1233.85718	-201.78435	672.72137	1223.87671	-152.55811	693.32819	1229.78772	-236.21265	659.74658	1234.56128	-221.28493	671.68744	1234.44763	-263.95901	667.82019	1212.68347	-281.57565	731.31738	1224.55420	-218.73613	741.24365	1228.39624	-186.71318	762.26868	1223.06506	-221.86897	781.61285	1188.26831	-232.74323	618.45789	1139.46191	-76.72877	573.16998	1184.19128	-159.61617	733.08008	1164.56226	-74.61657	
2229	9.283	733.07874	1220.05298	-272.13162	703.84100	1226.92432	-216.23842	678.77582	1217.81970	-166.91425	699.45245	1222.98193	-249.79037	667.84937	1231.97742	-230.95395	676.87555	1236.58765	-273.98550	667.32977	1214.81006	-290.29709	736.78174	1218.30811	-232.53181	742.95679	1227.07104	-198.74142	767.93805	1225.55566	-232.21828	788.66815	1190.11707	-237.53900	624.52777	1133.22961	-91.08694	579.17761	1177.93628	-172.59543	737.72028	1157.93311	-88.24185	
2230	9.288	739.23657	1213.75037	-286.05356	710.38647	1220.00623	-230.62247	684.62488	1211.80017	-181.21645	705.62195	1216.06006	-263.35016	677.08203	1228.81946	-240.73907	682.59320	1238.10486	-283.55353	666.38184	1217.37134	-296.89618	742.10095	1212.15491	-246.32445	743.62469	1225.32251	-211.95422	773.05701	1227.58862	-242.61578	795.34064	1192.78503	-240.16476	630.52039	1127.32556	-104.87782	585.01117	1172.62354	-186.35033	743.08136	1153.40698	-101.16299	
2231	9.292	745.36060	1207.32703	-299.85785	716.98187	1213.19800	-244.91772	690.37708	1205.60950	-195.43256	711.80627	1209.13770	-276.90125	687.09491	1224.87244	-250.94087	689.01306	1238.49817	-292.97403	666.44867	1220.39502	-301.50565	747.25659	1206.13293	-260.14386	743.87396	1222.72119	-226.36870	777.49500	1228.73035	-253.39676	800.76129	1196.73682	-241.38240	636.24286	1121.65601	-118.24576	590.66052	1168.23083	-200.91823	749.36847	1151.04456	-113.49763	
2232	9.296	751.44305	1200.82471	-313.55453	723.52277	1206.55750	-259.14587	696.14093	1198.97571	-209.52870	717.92938	1202.24292	-290.44122	697.36523	1220.12170	-261.85245	695.92993	1237.45935	-302.77249	668.66638	1223.84412	-305.06311	752.33807	1200.09558	-273.96777	744.38635	1219.06323	-241.65491	781.45691	1228.65112	-264.66049	804.24396	1202.27710	-242.42671	641.53369	1116.21631	-131.27919	596.12250	1165.05994	-215.84955	756.50153	1150.29773	-125.74220	
2233	9.300	757.51239	1194.27380	-327.18695	729.87689	1200.01050	-273.25232	701.91669	1191.75989	-223.47963	723.91583	1195.33301	-303.98322	707.33496	1214.71277	-273.74695	702.73035	1235.00684	-313.48569	673.38318	1227.63147	-308.98337	757.57343	1193.82178	-287.72473	745.80194	1214.32813	-257.42670	785.45581	1227.09839	-276.06607	805.66577	1209.32117	-244.78543	646.32239	1111.10864	-143.99718	601.51642	1163.37793	-230.52783	764.14044	1150.31433	-138.43401	
2234	9.304	763.59766	1187.67798	-340.77371	735.95239	1193.40112	-287.11398	707.63611	1184.01868	-237.29041	729.80029	1188.41443	-317.62497	716.46545	1208.86047	-286.84778	708.56305	1231.41260	-325.46487	680.07037	1231.40918	-314.73444	763.16223	1187.12646	-301.28479	748.78302	1208.73181	-273.38837	790.23334	1224.07690	-287.18375	805.88135	1217.18982	-249.73730	650.69202	1106.42188	-156.37448	607.06543	1162.82068	-244.55945	771.79102	1150.38000	-151.78587	
2235	9.308	769.70044	1181.04541	-354.29672	741.75909	1186.60742	-300.66718	713.22247	1175.58557	-251.40445	735.66119	1181.50317	-331.42017	724.27997	1202.76611	-301.22040	712.60962	1226.90002	-338.66934	687.49438	1234.47278	-323.44299	769.19177	1179.99829	-314.58942	753.82953	1202.64746	-289.22293	796.49622	1219.76904	-297.73593	806.76312	1224.45007	-257.78561	654.86841	1102.25171	-168.33275	612.96991	1162.39417	-257.92816	778.96997	1150.08130	-165.59537	
2236	9.313	775.79517	1174.38391	-367.73291	747.35553	1179.58936	-313.91135	718.97388	1168.12341	-264.38330	741.45032	1174.58582	-345.26373	730.47430	1196.50623	-316.62122	714.42847	1221.37634	-352.62448	693.89050	1235.75708	-335.68069	775.64008	1172.58020	-327.67740	761.03430	1196.35840	-304.39261	804.48657	1214.11731	-307.49133	810.61505	1229.10168	-268.32846	659.09558	1098.76099	-179.76695	619.17822	1160.92529	-270.95447	785.46082	1148.77368	-179.51346	
